<svg width="360" height="80" xmlns="http://www.w3.org/2000/svg" xmlns:xlink="http://www.w3.org/1999/xlink" style="fill-rule:evenodd;clip-rule:evenodd;stroke-linejoin:round;stroke-miterlimit:1.41421"><g id="Layer1"><path d="M108.376 1H60.7765C50.9362 1 45.0854 5.77617 43.2312 15.3355 41.3769 24.8878 46.6517 35.3742 59.0627 46.7808 66.5851 52.7018 65.3068 55.5183 55.2137 55.2304H0V78.2261H80.0286C91.1542 76.3718 96.8223 70.6686 97.0331 61.1163 97.2508 51.5569 91.5826 41.7167 80.0286 31.5884 73.5737 26.2434 74.9293 23.7148 84.0953 23.9958H123.653V78.2261H148.791V23.9958H173.29V1H108.376z" style="fill:#000;stroke-width:2px;stroke:#fdf253"/><path d="M162.185 78.2261 187.59 1H225.94l25.833 77.2261H222.568L217.701 66.4332H194.754L189.887 78.2261H162.185zM206.842 20.224 197.88 48.7053H214.955L206.842 20.224z" style="fill:#000;stroke-width:2px;stroke:#fdf253"/><path d="M259.057 78.2261V1H309.326C315.535 1.56893 320.634 3.21249 324.624 5.91664 328.62 8.62781 331.542 12.2661 333.396 16.8315 334.822 23.6797 334.892 28.9545 333.607 32.6631 332.329 36.3716 330.081 39.4691 326.871 41.9695 323.661 44.463 318.954 47.2621 312.969 48.688 312.969 48.688 313.335 51.5552 316.224 52.7419 324.866 56.2906 356.582 55.2304 356.582 55.2304V78.2261C356.582 78.2261 315.401 79.7015 311.468 78.2261 305.292 75.9094 286.976 52.7159 286.976 52.7159V78.2261H259.057zM286.976 20.2521V34.4822H306.439C307.479 34.4822 308.602 34.0959 309.81 33.3303 311.018 32.5647 311.665 30.6262 311.735 27.5287 311.559 24.5717 310.836 22.6191 309.572 21.6709 308.307 20.7297 307.24 20.2521 306.39 20.2521H286.976z" style="fill:#000;stroke-width:2px;stroke:#fdf253"/></g></svg>