<svg width="360" height="84" xmlns="http://www.w3.org/2000/svg" xmlns:xlink="http://www.w3.org/1999/xlink" style="fill-rule:evenodd;clip-rule:evenodd;stroke-linejoin:round;stroke-miterlimit:1.41421"><g id="Layer1"><path d="M57.8487 47.5662 49.498 81.171H29.2582L2.17718 1.88231H28.6872L38.8541 26.4957 44.68 1.88231H72.4788L80.413 26.4957 87.7685 1.88231H113.578L87.0363 81.171H67.8941L57.8487 47.5662z" style="fill:#000;stroke-width:2px;stroke:#fdf253"/><path d="M101.737 81.171 127.82 1.88231H167.187L193.71 81.171H163.726L158.735 66.8925H135.176L130.178 81.171H101.737zM147.587 19.4491 136.222 50.8617H158.072L147.587 19.4491z" style="fill:#000;stroke-width:2px;stroke:#fdf253"/><path d="M326.965 25.4922 356.582 25.3696V1.75972L303.023 1.88231C292.92 1.88231 286.92 6.78603 285.009 16.5934 283.112 26.4081 288.528 37.1674 301.271 48.8858 308.994 54.965 307.674 57.8567 297.312 57.5611H260.195L254.26 49.982C260.411 48.5181 265.135 46.5061 268.43 43.9461 271.726 41.3788 274.026 38.1986 275.346 34.391 276.665 30.5835 276.593 25.1605 275.129 18.1367 273.226 13.4493 270.226 9.71383 266.123 6.93025 262.026 4.14667 256.791 2.46644 250.416 1.88231H198.805V81.171H227.47V54.9794L252.616 81.171H322.789C334.212 79.2672 340.032 73.4116 340.255 63.597 340.471 53.7896 334.652 43.6864 322.789 33.2877 316.169 27.7999 317.561 25.1966 326.965 25.4922zM250.914 35.0761C249.666 35.8622 248.52 36.2588 247.452 36.2588H227.47V21.6486H247.402C248.282 21.6486 249.371 22.1318 250.661 23.1053 251.967 24.0716 252.709 26.0764 252.89 29.1195 252.818 32.2998 252.161 34.2901 250.914 35.0761z" style="fill:#000;stroke-width:2px;stroke:#fdf253"/></g></svg>